<svg xmlns="http://www.w3.org/2000/svg" width="99.999" height="100" viewBox="0 0 99.999 100">
  <g id="logo" transform="translate(-4.412 -4.412)">
    <path id="Caminho_2" data-name="Caminho 2" d="M22.716,4.412l63.541.038a18.237,18.237,0,0,1,18.154,18.229v63.54a18.27,18.27,0,0,1-18.229,18.192L22.6,104.374A18.293,18.293,0,0,1,4.412,86.145L4.486,22.6A18.222,18.222,0,0,1,22.716,4.412Z" transform="translate(0 0)" fill="#33348e"/>
    <path id="Caminho_3" data-name="Caminho 3" d="M89.508,46H82.261l-2.988,5.678h5.08L89.508,46Zm4.819,9.227h-7.06v15.24c0,4.67-3.139,6.014-5.453,6.014-2.2,0-4.633-.822-4.6-4.894V55.228h-7.06L70.12,72.6c0,6.723,3.849,9.712,9.153,9.712a8.818,8.818,0,0,0,8.18-4.407h.075v3.7h6.8V55.229h0Zm-29.7,6.984c0-6.537-6.872-7.694-10.683-7.694-5.491,0-11.207,1.158-12.066,9.226h6.836c.224-1.531.859-3.661,4.37-3.661,1.83,0,4.67.15,4.67,3.064,0,1.494-1.383,1.943-2.5,2.092l-6.35.934c-4.52.636-7.882,3.287-7.882,8.443,0,5.453,4.184,7.694,8.18,7.694a10.971,10.971,0,0,0,8.7-3.809,11.379,11.379,0,0,0,.673,3.1l6.089-.038c0-2.914-.038-5.043-.038-5.08V62.213ZM34.521,46h-7.06v9.189H23.8v4.968h3.623V76.184c0,3.4,1.083,5.716,7.21,5.716h.934c1.12,0,2.241-.076,3.325-.112V76.52c-.486.038-1.008.112-1.457.112-2.876,0-2.951-.6-2.951-2.167l.038-14.306h4.408V55.19H34.521V46Zm-13.97-.038H12.93l-.038,35.6h7.62Z" transform="translate(0.821 4.021)" fill="#fff22d"/>
    <path id="Caminho_4" data-name="Caminho 4" d="M54.648,70.139v-3.4c-.71.56-1.906,1.008-4.819,1.419-2.652.448-4.819,1.12-4.819,4A3.1,3.1,0,0,0,48.3,75.332c3.139,0,6.351-1.98,6.351-5.193Z" transform="translate(3.928 6.031)" fill="#33348e"/>
  </g>
</svg>
